<svg width="723" height="342" viewBox="0 0 723 342" fill="none" xmlns="http://www.w3.org/2000/svg">
<path d="M283.087 257L164 313V44.5L283.087 7M283.087 257L431.5 334.912M283.087 257V7M431.5 334.912L579 257V7L431.5 49.4117M431.5 334.912V49.4117M431.5 49.4117L283.087 7" stroke="#DEDEDE" stroke-width="14" stroke-linejoin="round"/>
<g clip-path="url(#clip0_4887_2355)">
<path d="M567.297 60.8687C560.865 31.4162 536.182 18.1562 514.499 18.1562C514.499 18.1562 514.499 18.1562 514.438 18.1562C492.817 18.1562 468.072 31.3525 461.64 60.805C454.474 93.7 473.829 121.559 491.347 139.09C497.839 145.592 506.169 148.844 514.499 148.844C522.829 148.844 531.159 145.592 537.59 139.09C555.108 121.559 574.463 93.7637 567.297 60.8687ZM514.499 92.8075C503.842 92.8075 495.205 83.8188 495.205 72.7263C495.205 61.6338 503.842 52.645 514.499 52.645C525.157 52.645 533.793 61.6338 533.793 72.7263C533.793 83.8188 525.157 92.8075 514.499 92.8075Z" fill="url(#paint0_linear_4887_2355)"/>
</g>
<g clip-path="url(#clip1_4887_2355)">
<path d="M67.8747 223.638C64.4514 208.397 51.153 201.583 39.5005 201.583C39.5005 201.583 39.5005 201.583 39.4676 201.583C27.848 201.583 14.5826 208.397 11.1264 223.605C7.24219 240.59 17.6439 254.974 27.058 264.059C30.5472 267.417 35.0239 269.096 39.5005 269.096C43.9772 269.096 48.4539 267.417 51.9101 264.059C61.3243 254.974 71.7259 240.623 67.8747 223.638ZM50.2972 226.37L37.1305 239.536C36.6368 240.03 36.0114 240.261 35.3859 240.261C34.7605 240.261 34.1351 240.03 33.6414 239.536L28.7039 234.599C27.7493 233.644 27.7493 232.064 28.7039 231.11C29.6584 230.155 31.2384 230.155 32.193 231.11L35.3859 234.303L46.808 222.881C47.7626 221.926 49.3426 221.926 50.2972 222.881C51.2518 223.835 51.2518 225.415 50.2972 226.37Z" fill="url(#paint1_linear_4887_2355)"/>
</g>
<path d="M514 160C500.012 178.874 492.124 198.821 471.037 209.709C450.846 220.134 429.211 220.288 407.444 217.884C370.777 213.834 335.043 202.595 298.399 198C245.999 191.429 182.759 187.086 136.961 221.419C120.689 233.616 107.087 248.323 92.7534 263.027C88.5002 267.39 84.1297 271.116 79 274" stroke="black" stroke-width="3" stroke-linecap="round" stroke-dasharray="16 16"/>
<rect x="384" y="250" width="339" height="48" rx="18" fill="white"/>
<rect x="390" y="256" width="137" height="36" rx="12" fill="#F3F3F3"/>
<path d="M403.136 267.488C403.221 268.459 403.355 269.152 403.536 269.568C403.717 269.984 403.989 270.192 404.352 270.192C404.608 270.192 404.8 270.053 404.928 269.776C405.067 269.488 405.136 269.109 405.136 268.64C405.136 268.203 405.077 267.701 404.96 267.136L406.128 266.864C406.288 267.515 406.368 268.149 406.368 268.768C406.368 269.643 406.197 270.352 405.856 270.896C405.515 271.429 405.019 271.696 404.368 271.696C403.632 271.696 403.061 271.296 402.656 270.496C402.443 270.933 402.176 271.275 401.856 271.52C401.547 271.755 401.2 271.872 400.816 271.872C400.315 271.872 399.872 271.739 399.488 271.472L399.552 271.984C399.701 273.328 399.776 275.019 399.776 277.056V278H398.432C398.443 277.008 398.421 275.984 398.368 274.928C398.325 273.861 398.256 272.939 398.16 272.16C398.032 271.2 397.867 270.368 397.664 269.664C397.472 268.949 397.232 268.277 396.944 267.648L398.32 266.864C398.48 267.227 398.64 267.648 398.8 268.128C399.045 268.864 399.312 269.419 399.6 269.792C399.888 270.155 400.261 270.336 400.72 270.336C401.168 270.336 401.509 270.117 401.744 269.68C401.979 269.232 402.075 268.608 402.032 267.808C402.021 267.787 402.016 267.744 402.016 267.68L403.136 267.488ZM407.404 277.696C408.012 275.861 409.036 274.251 410.476 272.864C409.782 272.725 409.233 272.405 408.828 271.904C408.422 271.392 408.22 270.811 408.22 270.16C408.22 269.68 408.337 269.205 408.572 268.736C408.806 268.256 409.153 267.851 409.612 267.52C410.081 267.189 410.63 266.987 411.26 266.912C411.334 266.901 411.452 266.896 411.612 266.896C412.049 266.896 412.465 266.976 412.86 267.136C413.254 267.285 413.569 267.456 413.804 267.648L413.26 268.736C412.812 268.469 412.31 268.336 411.756 268.336C411.606 268.336 411.489 268.341 411.404 268.352C410.86 268.405 410.417 268.608 410.076 268.96C409.734 269.301 409.564 269.691 409.564 270.128C409.564 270.501 409.713 270.811 410.012 271.056C410.321 271.301 410.721 271.424 411.212 271.424C411.83 271.424 412.481 271.237 413.164 270.864V270.88C413.601 270.635 414.044 270.427 414.492 270.256L414.748 271.776C413.948 272.075 413.153 272.528 412.364 273.136C411.585 273.733 410.865 274.469 410.204 275.344C409.542 276.219 409.014 277.195 408.62 278.272L407.404 277.696ZM417.664 277.84C417.398 277.84 417.169 277.749 416.977 277.568C416.795 277.376 416.705 277.147 416.705 276.88C416.705 276.613 416.795 276.389 416.977 276.208C417.169 276.016 417.398 275.92 417.664 275.92C417.931 275.92 418.155 276.016 418.337 276.208C418.529 276.389 418.625 276.613 418.625 276.88C418.625 277.147 418.529 277.376 418.337 277.568C418.155 277.749 417.931 277.84 417.664 277.84ZM422.544 277.28C422.544 276.405 422.517 275.509 422.464 274.592C422.421 273.675 422.357 272.864 422.272 272.16C422.154 271.221 421.994 270.4 421.792 269.696C421.6 268.981 421.36 268.299 421.072 267.648L422.432 266.864C422.666 267.344 422.89 267.979 423.104 268.768C423.349 269.611 423.696 270.277 424.144 270.768L424.096 270.432C424.053 269.845 424.165 269.285 424.432 268.752C424.698 268.219 425.082 267.792 425.584 267.472C426.096 267.141 426.661 266.976 427.28 266.976C427.76 266.976 428.213 267.072 428.64 267.264C429.066 267.456 429.493 267.723 429.92 268.064L429.36 269.136C429.082 268.955 428.762 268.805 428.4 268.688C428.048 268.56 427.701 268.496 427.36 268.496C426.784 268.496 426.304 268.661 425.92 268.992C425.536 269.312 425.344 269.707 425.344 270.176C425.344 270.667 425.509 271.072 425.84 271.392C426.17 271.701 426.64 271.856 427.248 271.856C427.984 271.856 428.853 271.605 429.856 271.104L430.224 272.416C429.808 272.683 429.317 272.901 428.752 273.072C428.197 273.232 427.621 273.312 427.024 273.312C426.416 273.312 425.818 273.211 425.232 273.008C424.656 272.805 424.133 272.485 423.664 272.048C423.813 273.392 423.888 275.067 423.888 277.072V278H422.544V277.28ZM431.172 274.384C431.247 273.509 431.54 272.565 432.052 271.552C432.564 270.539 433.199 269.552 433.956 268.592C433.743 268.421 433.583 268.299 433.476 268.224L434.292 266.896C435.892 268.176 437.183 269.461 438.164 270.752C439.145 272.043 439.636 273.451 439.636 274.976C439.636 275.968 439.412 276.736 438.964 277.28C438.516 277.824 437.94 278.096 437.236 278.096C436.905 278.096 436.585 278.021 436.276 277.872C435.967 277.712 435.705 277.467 435.492 277.136C435.108 277.765 434.511 278.08 433.7 278.08C432.921 278.08 432.297 277.792 431.828 277.216C431.369 276.629 431.14 275.867 431.14 274.928C431.14 274.821 431.151 274.64 431.172 274.384ZM432.452 274.8C432.452 275.365 432.569 275.808 432.804 276.128C433.049 276.437 433.369 276.592 433.764 276.592C434.105 276.581 434.377 276.405 434.58 276.064C434.783 275.712 434.879 275.232 434.868 274.624L436.068 274.432C436.111 275.115 436.223 275.648 436.404 276.032C436.596 276.405 436.857 276.592 437.188 276.592C437.967 276.592 438.356 276.005 438.356 274.832C438.356 273.883 438.052 272.965 437.444 272.08C436.847 271.184 436.025 270.293 434.98 269.408C434.201 270.357 433.583 271.301 433.124 272.24C432.676 273.179 432.452 274.032 432.452 274.8ZM440.841 277.696C441.449 275.861 442.473 274.251 443.913 272.864C443.22 272.725 442.671 272.405 442.265 271.904C441.86 271.392 441.657 270.811 441.657 270.16C441.657 269.68 441.775 269.205 442.009 268.736C442.244 268.256 442.591 267.851 443.049 267.52C443.519 267.189 444.068 266.987 444.697 266.912C444.772 266.901 444.889 266.896 445.049 266.896C445.487 266.896 445.903 266.976 446.297 267.136C446.692 267.285 447.007 267.456 447.241 267.648L446.697 268.736C446.249 268.469 445.748 268.336 445.193 268.336C445.044 268.336 444.927 268.341 444.841 268.352C444.297 268.405 443.855 268.608 443.513 268.96C443.172 269.301 443.001 269.691 443.001 270.128C443.001 270.501 443.151 270.811 443.449 271.056C443.759 271.301 444.159 271.424 444.649 271.424C445.268 271.424 445.919 271.237 446.601 270.864V270.88C447.039 270.635 447.481 270.427 447.929 270.256L448.185 271.776C447.385 272.075 446.591 272.528 445.801 273.136C445.023 273.733 444.303 274.469 443.641 275.344C442.98 276.219 442.452 277.195 442.057 278.272L440.841 277.696ZM458.062 267.744C457.667 268.363 457.198 269.28 456.654 270.496C456.11 271.701 455.614 272.987 455.166 274.352C454.729 275.717 454.446 276.933 454.318 278H452.974C452.878 276.944 452.606 275.739 452.158 274.384C451.721 273.019 451.225 271.728 450.67 270.512C450.115 269.296 449.635 268.373 449.23 267.744L450.494 266.816C450.963 267.605 451.502 268.768 452.11 270.304C452.729 271.829 453.246 273.365 453.662 274.912C454.089 273.344 454.601 271.797 455.198 270.272C455.806 268.736 456.339 267.584 456.798 266.816L458.062 267.744ZM463.568 279.696C464.069 279.003 464.325 278.304 464.336 277.6V276.288H465.744V277.424C465.744 277.936 465.616 278.459 465.36 278.992C465.104 279.525 464.778 279.952 464.384 280.272L463.568 279.696ZM473.809 277.28C473.809 276.405 473.783 275.509 473.729 274.592C473.687 273.675 473.623 272.864 473.537 272.16C473.42 271.221 473.26 270.4 473.057 269.696C472.865 268.981 472.625 268.299 472.337 267.648L473.697 266.864C473.932 267.344 474.156 267.979 474.369 268.768C474.615 269.611 474.961 270.277 475.409 270.768L475.361 270.432C475.319 269.845 475.431 269.285 475.697 268.752C475.964 268.219 476.348 267.792 476.849 267.472C477.361 267.141 477.927 266.976 478.545 266.976C479.025 266.976 479.479 267.072 479.905 267.264C480.332 267.456 480.759 267.723 481.185 268.064L480.625 269.136C480.348 268.955 480.028 268.805 479.665 268.688C479.313 268.56 478.967 268.496 478.625 268.496C478.049 268.496 477.569 268.661 477.185 268.992C476.801 269.312 476.609 269.707 476.609 270.176C476.609 270.667 476.775 271.072 477.105 271.392C477.436 271.701 477.905 271.856 478.513 271.856C479.249 271.856 480.119 271.605 481.121 271.104L481.489 272.416C481.073 272.683 480.583 272.901 480.017 273.072C479.463 273.232 478.887 273.312 478.289 273.312C477.681 273.312 477.084 273.211 476.497 273.008C475.921 272.805 475.399 272.485 474.929 272.048C475.079 273.392 475.153 275.067 475.153 277.072V278H473.809V277.28ZM484.294 277.28C484.294 276.405 484.267 275.509 484.214 274.592C484.171 273.675 484.107 272.864 484.022 272.16C483.904 271.221 483.744 270.4 483.542 269.696C483.35 268.981 483.11 268.299 482.822 267.648L484.182 266.864C484.758 268.08 485.168 269.787 485.414 271.984C485.563 273.328 485.638 275.019 485.638 277.056V278H484.294V277.28ZM489.93 277.84C489.663 277.84 489.434 277.749 489.242 277.568C489.061 277.376 488.97 277.147 488.97 276.88C488.97 276.613 489.061 276.389 489.242 276.208C489.434 276.016 489.663 275.92 489.93 275.92C490.197 275.92 490.421 276.016 490.602 276.208C490.794 276.389 490.89 276.613 490.89 276.88C490.89 277.147 490.794 277.376 490.602 277.568C490.421 277.749 490.197 277.84 489.93 277.84ZM492.841 277.696C493.449 275.861 494.473 274.251 495.913 272.864C495.22 272.725 494.671 272.405 494.265 271.904C493.86 271.392 493.657 270.811 493.657 270.16C493.657 269.68 493.775 269.205 494.009 268.736C494.244 268.256 494.591 267.851 495.049 267.52C495.519 267.189 496.068 266.987 496.697 266.912C496.772 266.901 496.889 266.896 497.049 266.896C497.487 266.896 497.903 266.976 498.297 267.136C498.692 267.285 499.007 267.456 499.241 267.648L498.697 268.736C498.249 268.469 497.748 268.336 497.193 268.336C497.044 268.336 496.927 268.341 496.841 268.352C496.297 268.405 495.855 268.608 495.513 268.96C495.172 269.301 495.001 269.691 495.001 270.128C495.001 270.501 495.151 270.811 495.449 271.056C495.759 271.301 496.159 271.424 496.649 271.424C497.268 271.424 497.919 271.237 498.601 270.864V270.88C499.039 270.635 499.481 270.427 499.929 270.256L500.185 271.776C499.385 272.075 498.591 272.528 497.801 273.136C497.023 273.733 496.303 274.469 495.641 275.344C494.98 276.219 494.452 277.195 494.057 278.272L492.841 277.696ZM510.062 267.744C509.667 268.363 509.198 269.28 508.654 270.496C508.11 271.701 507.614 272.987 507.166 274.352C506.729 275.717 506.446 276.933 506.318 278H504.974C504.878 276.944 504.606 275.739 504.158 274.384C503.721 273.019 503.225 271.728 502.67 270.512C502.115 269.296 501.635 268.373 501.23 267.744L502.494 266.816C502.963 267.605 503.502 268.768 504.11 270.304C504.729 271.829 505.246 273.365 505.662 274.912C506.089 273.344 506.601 271.797 507.198 270.272C507.806 268.736 508.339 267.584 508.798 266.816L510.062 267.744ZM511.027 277.248C511.422 276.629 511.891 275.717 512.435 274.512C512.979 273.296 513.47 272.005 513.907 270.64C514.355 269.275 514.643 268.059 514.771 266.992H516.115C516.211 268.048 516.478 269.259 516.915 270.624C517.363 271.979 517.864 273.264 518.419 274.48C518.974 275.696 519.454 276.619 519.859 277.248L518.595 278.176C518.126 277.387 517.582 276.229 516.963 274.704C516.355 273.168 515.843 271.627 515.427 270.08C515 271.648 514.483 273.2 513.875 274.736C513.278 276.261 512.75 277.408 512.291 278.176L511.027 277.248Z" fill="black"/>
<path d="M536.144 273.296C535.877 273.296 535.648 273.205 535.456 273.024C535.275 272.832 535.184 272.603 535.184 272.336C535.184 272.069 535.275 271.845 535.456 271.664C535.648 271.472 535.877 271.376 536.144 271.376C536.411 271.376 536.635 271.472 536.816 271.664C536.997 271.845 537.088 272.069 537.088 272.336C537.088 272.603 536.997 272.832 536.816 273.024C536.635 273.205 536.411 273.296 536.144 273.296ZM535.184 276.928C535.184 276.661 535.275 276.437 535.456 276.256C535.648 276.064 535.877 275.968 536.144 275.968C536.411 275.968 536.635 276.064 536.816 276.256C536.997 276.437 537.088 276.661 537.088 276.928C537.088 277.195 536.997 277.419 536.816 277.6C536.635 277.781 536.411 277.872 536.144 277.872C535.877 277.872 535.648 277.781 535.456 277.6C535.275 277.419 535.184 277.195 535.184 276.928ZM542.618 278C541.86 278 541.268 277.877 540.842 277.632C540.415 277.376 540.111 276.997 539.93 276.496C539.759 275.995 539.674 275.333 539.674 274.512C539.674 273.296 539.647 271.92 539.594 270.384C539.551 268.837 539.482 267.755 539.386 267.136L540.666 266.864C540.751 267.408 540.815 268.363 540.858 269.728C540.911 271.083 540.938 272.315 540.938 273.424V274.096L540.922 274.656C540.922 275.157 540.964 275.541 541.05 275.808C541.135 276.064 541.295 276.256 541.53 276.384C541.775 276.501 542.138 276.56 542.618 276.56H542.698L542.778 277.28L542.698 278H542.618ZM542.545 276.56H542.865C543.761 276.56 544.47 276.064 544.993 275.072C545.516 274.112 546.001 273.376 546.449 272.864C546.897 272.341 547.404 272.064 547.969 272.032C549.196 271.968 550.028 272.811 550.465 274.56C550.636 275.275 550.817 275.787 551.009 276.096C551.201 276.405 551.468 276.56 551.809 276.56H551.953L552.033 277.28L551.953 278H551.809C551.02 278 550.508 277.563 550.273 276.688C550.241 276.944 550.129 277.184 549.937 277.408C549.756 277.632 549.553 277.803 549.329 277.92C549.148 278.027 548.924 278.08 548.657 278.08C547.889 278.08 546.806 277.627 545.409 276.72C545.089 277.136 544.705 277.456 544.257 277.68C543.82 277.893 543.345 278 542.833 278H542.545V276.56ZM546.049 275.568C546.646 275.984 547.196 276.299 547.697 276.512C548.209 276.715 548.614 276.816 548.913 276.816C549.02 276.816 549.105 276.8 549.169 276.768C549.404 276.544 549.521 276.181 549.521 275.68C549.521 275.328 549.457 274.971 549.329 274.608C549.212 274.245 549.041 273.947 548.817 273.712C548.604 273.467 548.358 273.344 548.081 273.344C547.761 273.344 547.43 273.541 547.089 273.936C546.758 274.331 546.412 274.875 546.049 275.568ZM560.723 278C560.179 277.989 559.731 277.84 559.379 277.552C559.038 277.264 558.803 276.853 558.675 276.32C558.43 276.811 558.11 277.211 557.715 277.52C557.331 277.829 556.91 277.989 556.451 278H556.403C555.912 278 555.502 277.856 555.171 277.568C554.851 277.269 554.659 276.869 554.595 276.368C554.264 276.901 553.87 277.307 553.411 277.584C552.952 277.861 552.446 278 551.891 278H551.827L551.747 277.28L551.827 276.56H551.907C552.302 276.56 552.675 276.469 553.027 276.288C553.379 276.107 553.651 275.867 553.843 275.568C554.046 275.28 554.2 274.976 554.307 274.656C554.424 274.336 554.542 273.957 554.659 273.52L555.859 273.648C555.838 273.712 555.795 273.872 555.731 274.128C555.667 274.384 555.614 274.624 555.571 274.848C555.539 275.072 555.523 275.275 555.523 275.456C555.523 276.192 555.822 276.56 556.419 276.56H556.451C557.048 276.56 557.56 276.187 557.987 275.44C558.126 275.184 558.232 274.88 558.307 274.528C558.392 274.176 558.472 273.787 558.547 273.36L559.731 273.424C559.72 273.467 559.683 273.664 559.619 274.016C559.555 274.368 559.523 274.709 559.523 275.04C559.523 275.552 559.619 275.936 559.811 276.192C560.014 276.437 560.328 276.56 560.755 276.56C561.555 276.56 561.955 276.117 561.955 275.232C561.955 274.869 561.848 274.363 561.635 273.712C561.432 273.051 561.251 272.549 561.091 272.208L562.227 271.584C562.44 272.032 562.654 272.619 562.867 273.344C563.08 274.059 563.187 274.688 563.187 275.232C563.187 275.744 563.086 276.213 562.883 276.64C562.68 277.056 562.392 277.387 562.019 277.632C561.656 277.877 561.246 278 560.787 278H560.755H560.723ZM557.699 268.88L558.787 269.952L557.699 271.04L556.627 269.952L557.699 268.88ZM559.171 267.248L560.131 268.208L559.171 269.184L558.195 268.208L559.171 267.248ZM560.643 268.88L561.715 269.952L560.643 271.04L559.555 269.952L560.643 268.88ZM573.891 282.464C572.974 282.464 572.158 282.283 571.443 281.92C570.739 281.568 570.185 281.061 569.779 280.4C569.374 279.739 569.171 278.965 569.171 278.08C569.171 277.429 569.278 276.741 569.491 276.016C569.705 275.291 569.95 274.651 570.227 274.096L571.315 274.608C570.718 275.867 570.419 276.965 570.419 277.904C570.419 278.917 570.718 279.691 571.315 280.224C571.913 280.757 572.771 281.024 573.891 281.024C574.542 281.024 575.155 280.939 575.731 280.768C576.318 280.597 576.798 280.384 577.171 280.128C577.545 279.883 577.758 279.664 577.811 279.472C577.758 279.355 577.571 279.168 577.251 278.912C576.942 278.667 576.553 278.405 576.083 278.128C575.614 277.851 575.129 277.611 574.627 277.408L574.931 276.048C576.585 276.389 578.131 276.56 579.571 276.56H580.259L580.339 277.28L580.259 278H579.571C579.081 278 578.473 277.963 577.747 277.888C578.611 278.475 579.043 279.008 579.043 279.488C579.043 279.979 578.803 280.453 578.323 280.912C577.854 281.371 577.219 281.744 576.419 282.032C575.63 282.32 574.787 282.464 573.891 282.464ZM580.044 277.28L580.124 276.56H581.036C582.178 276.56 582.983 276.453 583.452 276.24C583.922 276.016 584.156 275.653 584.156 275.152C584.146 274.821 584.034 274.32 583.82 273.648C583.618 272.965 583.442 272.475 583.292 272.176L584.444 271.568C584.658 271.984 584.866 272.549 585.068 273.264C585.282 273.968 585.388 274.581 585.388 275.104C585.388 276.053 585.042 276.773 584.348 277.264C583.655 277.755 582.61 278 581.212 278H580.124L580.044 277.28ZM581.324 279.456L582.46 280.592L581.324 281.728L580.188 280.592L581.324 279.456ZM584.188 279.456L585.324 280.592L584.188 281.728L583.052 280.592L584.188 279.456ZM590.399 278C589.642 278 589.05 277.877 588.623 277.632C588.196 277.376 587.892 276.997 587.711 276.496C587.54 275.995 587.455 275.333 587.455 274.512C587.455 273.296 587.428 271.92 587.375 270.384C587.332 268.837 587.263 267.755 587.167 267.136L588.447 266.864C588.532 267.408 588.596 268.363 588.639 269.728C588.692 271.083 588.719 272.315 588.719 273.424V274.096L588.703 274.656C588.703 275.157 588.746 275.541 588.831 275.808C588.916 276.064 589.076 276.256 589.311 276.384C589.556 276.501 589.919 276.56 590.399 276.56H590.479L590.559 277.28L590.479 278H590.399ZM590.326 276.56H590.47C591.292 276.56 591.932 276.528 592.39 276.464C592.849 276.389 593.185 276.277 593.398 276.128C593.612 275.979 593.766 275.776 593.862 275.52C593.926 275.328 593.958 275.099 593.958 274.832C593.958 274.491 593.894 273.904 593.766 273.072L594.95 272.848C595.078 273.52 595.148 274.373 595.158 275.408C595.308 276.176 595.793 276.56 596.614 276.56H596.726L596.806 277.28L596.726 278H596.614C596.166 278 595.761 277.888 595.398 277.664C595.036 277.429 594.753 277.12 594.55 276.736C594.294 277.205 593.857 277.536 593.238 277.728C592.62 277.909 591.697 278 590.47 278H590.326V276.56ZM590.614 279.456L591.75 280.592L590.614 281.728L589.478 280.592L590.614 279.456ZM593.478 279.456L594.614 280.592L593.478 281.728L592.342 280.592L593.478 279.456ZM596.545 276.56H596.737C598.081 276.56 599.158 276.464 599.969 276.272C600.79 276.08 601.371 275.771 601.713 275.344C601.446 275.376 601.179 275.392 600.913 275.392C600.198 275.392 599.563 275.28 599.009 275.056C598.454 274.832 598.054 274.491 597.809 274.032C597.606 273.637 597.505 273.195 597.505 272.704C597.505 272.181 597.617 271.669 597.841 271.168C598.075 270.667 598.395 270.256 598.801 269.936C599.206 269.616 599.649 269.456 600.129 269.456C600.715 269.456 601.233 269.68 601.681 270.128C602.139 270.576 602.486 271.157 602.721 271.872C602.966 272.576 603.089 273.296 603.089 274.032C603.089 274.171 603.078 274.368 603.057 274.624C602.961 275.712 602.379 276.549 601.313 277.136C600.246 277.712 598.721 278 596.737 278H596.545V276.56ZM598.785 273.184C598.945 273.451 599.243 273.659 599.681 273.808C600.118 273.957 600.614 274.032 601.169 274.032C601.489 274.032 601.771 274.011 602.017 273.968C601.921 273.147 601.702 272.427 601.361 271.808C601.03 271.179 600.598 270.864 600.065 270.864C599.809 270.864 599.569 270.949 599.345 271.12C599.131 271.291 598.961 271.515 598.833 271.792C598.705 272.059 598.641 272.325 598.641 272.592C598.641 272.805 598.689 273.003 598.785 273.184ZM599.985 265.952L601.121 267.088L599.985 268.224L598.849 267.088L599.985 265.952ZM605.03 277.904C605.105 277.264 605.142 276.181 605.142 274.656C605.142 273.205 605.11 271.707 605.046 270.16C604.993 268.603 604.929 267.595 604.854 267.136L606.134 266.864C606.198 267.355 606.262 268.427 606.326 270.08C606.401 271.723 606.438 273.285 606.438 274.768C606.438 276.261 606.401 277.36 606.326 278.064L605.03 277.904ZM612.374 278C611.968 278 611.611 277.904 611.302 277.712V277.952C611.302 278.581 611.115 279.195 610.742 279.792C610.368 280.4 609.851 280.944 609.19 281.424C608.539 281.915 607.803 282.304 606.982 282.592L606.438 281.344C607.12 281.109 607.739 280.8 608.294 280.416C608.848 280.032 609.28 279.621 609.59 279.184C609.91 278.747 610.07 278.336 610.07 277.952C610.07 277.408 609.798 276.075 609.254 273.952L610.486 273.488C610.656 274.043 610.795 274.581 610.902 275.104C611.062 275.637 611.254 276.016 611.478 276.24C611.702 276.453 612 276.56 612.374 276.56H612.486L612.566 277.28L612.486 278H612.374ZM612.326 276.56H612.662C613.729 276.56 614.732 276.416 615.67 276.128C615.009 275.552 614.236 274.693 613.35 273.552L613.398 272.608C613.825 272.181 614.369 271.856 615.03 271.632C615.692 271.408 616.374 271.296 617.078 271.296C617.878 271.296 618.577 271.435 619.174 271.712C619.772 271.979 620.145 272.357 620.294 272.848C620.316 272.955 620.326 273.045 620.326 273.12C620.326 273.536 620.14 274.021 619.766 274.576C619.393 275.131 618.886 275.653 618.246 276.144C618.972 276.421 619.836 276.56 620.838 276.56H621.238L621.318 277.28L621.238 278H620.838C620.017 278 619.286 277.925 618.646 277.776C618.006 277.616 617.404 277.365 616.838 277.024C615.537 277.675 614.145 278 612.662 278H612.326V276.56ZM614.694 273.28C615.548 274.293 616.332 275.045 617.046 275.536C617.665 275.184 618.15 274.795 618.502 274.368C618.865 273.931 619.094 273.573 619.19 273.296C619.084 273.072 618.838 272.891 618.454 272.752C618.081 272.613 617.644 272.544 617.142 272.544C616.694 272.544 616.252 272.608 615.814 272.736C615.377 272.853 615.004 273.035 614.694 273.28ZM616.966 268L618.102 269.136L616.966 270.272L615.83 269.136L616.966 268ZM621.06 276.56H622.532C623.866 276.56 625.108 276.4 626.26 276.08C627.423 275.749 628.586 275.275 629.748 274.656C629.972 274.528 630.196 274.416 630.42 274.32C629.759 274.203 629.044 273.952 628.276 273.568C627.764 273.301 627.306 273.099 626.9 272.96C626.495 272.821 626.095 272.752 625.7 272.752C625.252 272.752 624.847 272.885 624.484 273.152C624.122 273.419 623.85 273.733 623.668 274.096L622.804 273.504C623.146 272.811 623.567 272.288 624.068 271.936C624.57 271.573 625.13 271.392 625.748 271.392C626.196 271.392 626.612 271.467 626.996 271.616C627.391 271.765 627.972 272.032 628.74 272.416C629.455 272.779 630.015 273.051 630.42 273.232C630.836 273.403 631.306 273.541 631.828 273.648L631.876 274.912C631.663 274.976 631.439 275.061 631.204 275.168C630.98 275.275 630.655 275.445 630.228 275.68C628.788 276.437 627.482 277.013 626.308 277.408C625.146 277.803 623.887 278 622.532 278H621.06V276.56ZM626.372 279.296L627.508 280.432L626.372 281.568L625.236 280.432L626.372 279.296ZM642.548 282.592C641.535 282.592 640.671 282.389 639.956 281.984C639.252 281.579 638.719 281.04 638.356 280.368C638.004 279.696 637.828 278.96 637.828 278.16C637.828 277.52 637.935 276.848 638.148 276.144C638.362 275.44 638.607 274.8 638.884 274.224L639.972 274.736C639.375 275.995 639.076 277.093 639.076 278.032C639.076 279.045 639.375 279.819 639.972 280.352C640.57 280.885 641.428 281.152 642.548 281.152C643.412 281.152 644.132 280.992 644.708 280.672C645.295 280.363 645.727 279.963 646.004 279.472C646.282 278.992 646.42 278.485 646.42 277.952C646.42 277.451 646.319 276.832 646.116 276.096C645.914 275.36 645.695 274.709 645.46 274.144L646.644 273.584C646.708 273.723 646.794 273.931 646.9 274.208C647.082 274.677 647.279 275.072 647.492 275.392C647.706 275.712 647.946 275.979 648.212 276.192C648.874 274.997 649.7 273.947 650.692 273.04C651.684 272.133 652.724 271.68 653.812 271.68C654.399 271.68 654.927 271.819 655.396 272.096C655.876 272.363 656.239 272.731 656.484 273.2C656.73 273.669 656.826 274.181 656.772 274.736C656.698 275.451 656.41 276.085 655.908 276.64C655.418 277.184 654.756 277.605 653.924 277.904C653.103 278.203 652.186 278.352 651.172 278.352C649.69 278.352 648.5 277.979 647.604 277.232C647.626 277.552 647.636 277.792 647.636 277.952C647.636 278.72 647.434 279.461 647.028 280.176C646.634 280.891 646.052 281.472 645.284 281.92C644.516 282.368 643.604 282.592 642.548 282.592ZM649.268 276.704C649.78 276.843 650.42 276.912 651.188 276.912C652.042 276.912 652.804 276.795 653.476 276.56C654.159 276.325 654.687 276.021 655.06 275.648C655.434 275.264 655.62 274.864 655.62 274.448C655.62 274.064 655.46 273.739 655.14 273.472C654.831 273.205 654.415 273.072 653.892 273.072C653.007 273.072 652.17 273.429 651.38 274.144C650.591 274.859 649.887 275.712 649.268 276.704ZM653.284 268.144L654.42 269.28L653.284 270.416L652.148 269.28L653.284 268.144ZM662.233 278C661.828 278 661.47 277.904 661.161 277.712V277.952C661.161 278.581 660.974 279.195 660.601 279.792C660.228 280.4 659.71 280.944 659.049 281.424C658.398 281.915 657.662 282.304 656.841 282.592L656.297 281.344C656.98 281.109 657.598 280.8 658.153 280.416C658.708 280.032 659.14 279.621 659.449 279.184C659.769 278.747 659.929 278.336 659.929 277.952C659.929 277.408 659.657 276.075 659.113 273.952L660.345 273.488C660.516 274.043 660.654 274.581 660.761 275.104C660.921 275.637 661.113 276.016 661.337 276.24C661.561 276.453 661.86 276.56 662.233 276.56H662.345L662.425 277.28L662.345 278H662.233ZM662.186 276.56H662.378C662.932 276.56 663.647 276.549 664.522 276.528C663.892 275.931 663.578 275.216 663.578 274.384C663.578 273.861 663.706 273.371 663.962 272.912C664.228 272.443 664.586 272.059 665.034 271.76C665.482 271.461 665.978 271.28 666.522 271.216C666.596 271.205 666.703 271.2 666.842 271.2C667.311 271.2 667.77 271.301 668.218 271.504C668.676 271.696 669.087 271.957 669.45 272.288L668.938 273.28C668.244 272.853 667.578 272.64 666.938 272.64C666.511 272.64 666.132 272.72 665.802 272.88C665.482 273.04 665.231 273.259 665.05 273.536C664.868 273.803 664.778 274.091 664.778 274.4C664.778 274.731 664.89 275.045 665.114 275.344C665.348 275.632 665.663 275.861 666.058 276.032C666.452 276.203 666.884 276.288 667.354 276.288C668.239 276.171 669.06 275.968 669.818 275.68L670.122 276.96C669.247 277.323 668.218 277.589 667.034 277.76C665.85 277.92 664.298 278 662.378 278H662.186V276.56ZM675.886 281.312C677.433 280.971 678.612 280.523 679.422 279.968C680.244 279.424 680.724 278.747 680.862 277.936C680.521 278.011 680.11 278.048 679.63 278.048C678.937 278.048 678.308 277.941 677.742 277.728C677.177 277.504 676.772 277.152 676.526 276.672C676.356 276.331 676.27 275.931 676.27 275.472C676.27 274.917 676.388 274.363 676.622 273.808C676.868 273.253 677.188 272.795 677.582 272.432C677.988 272.069 678.42 271.888 678.878 271.888C679.508 271.888 680.062 272.165 680.542 272.72C681.022 273.275 681.39 273.973 681.646 274.816C681.902 275.648 682.03 276.469 682.03 277.28C682.03 278.603 681.524 279.728 680.51 280.656C679.508 281.584 678.105 282.229 676.302 282.592L675.886 281.312ZM677.55 275.872C677.71 276.128 677.993 276.32 678.398 276.448C678.814 276.576 679.289 276.64 679.822 276.64C680.132 276.64 680.473 276.613 680.846 276.56C680.74 275.696 680.51 274.944 680.158 274.304C679.817 273.664 679.38 273.328 678.846 273.296C678.612 273.285 678.382 273.381 678.158 273.584C677.934 273.787 677.753 274.048 677.614 274.368C677.476 274.688 677.406 274.992 677.406 275.28C677.406 275.515 677.454 275.712 677.55 275.872ZM692.525 282.016C691.703 282.016 690.957 281.845 690.285 281.504C689.623 281.173 689.095 280.704 688.701 280.096C688.317 279.488 688.125 278.784 688.125 277.984C688.125 277.419 688.226 276.784 688.429 276.08C688.631 275.376 688.877 274.731 689.165 274.144L690.253 274.672C689.666 275.867 689.373 276.907 689.373 277.792C689.373 278.624 689.655 279.296 690.221 279.808C690.797 280.32 691.565 280.576 692.525 280.576C693.73 280.576 694.615 280.251 695.181 279.6C695.746 278.949 696.002 277.973 695.949 276.672C695.757 271.84 695.586 268.661 695.437 267.136L696.701 266.864C696.807 267.952 696.973 271.2 697.197 276.608C697.261 278.315 696.882 279.643 696.061 280.592C695.25 281.541 694.071 282.016 692.525 282.016ZM698.355 281.312C699.87 280.981 701.032 280.544 701.843 280C702.664 279.467 703.155 278.805 703.315 278.016C702.163 278.027 701.224 277.947 700.499 277.776C699.774 277.595 699.272 277.227 698.995 276.672C698.824 276.331 698.739 275.931 698.739 275.472C698.739 274.917 698.856 274.363 699.091 273.808C699.336 273.253 699.656 272.795 700.051 272.432C700.456 272.069 700.888 271.888 701.347 271.888C701.923 271.888 702.43 272.117 702.867 272.576C703.315 273.035 703.672 273.621 703.939 274.336C704.216 275.051 704.392 275.792 704.467 276.56H705.059L705.139 277.28L705.059 278H704.451C704.27 279.152 703.683 280.123 702.691 280.912C701.71 281.701 700.403 282.261 698.771 282.592L698.355 281.312ZM700.019 275.872C700.19 276.139 700.563 276.32 701.139 276.416C701.726 276.512 702.456 276.56 703.331 276.56C703.224 275.696 702.995 274.944 702.643 274.304C702.291 273.664 701.848 273.328 701.315 273.296C701.08 273.285 700.851 273.381 700.627 273.584C700.403 273.787 700.222 274.048 700.083 274.368C699.944 274.688 699.875 274.992 699.875 275.28C699.875 275.515 699.923 275.712 700.019 275.872ZM706.346 276.56C706.73 275.867 707.114 275.248 707.498 274.704C707.519 274.213 707.53 273.803 707.53 273.472C707.53 272.416 707.482 271.227 707.386 269.904C707.29 268.581 707.199 267.664 707.114 267.152L708.394 266.864C708.479 267.344 708.559 268.112 708.634 269.168C708.719 270.213 708.762 271.248 708.762 272.272C708.762 272.699 708.756 273.013 708.746 273.216C709.343 272.608 709.956 272.144 710.586 271.824C711.215 271.504 711.828 271.339 712.426 271.328C712.98 271.328 713.482 271.445 713.93 271.68C714.388 271.915 714.746 272.24 715.002 272.656C715.258 273.061 715.386 273.525 715.386 274.048C715.386 274.827 715.119 275.52 714.586 276.128C714.052 276.725 713.316 277.189 712.378 277.52C711.439 277.84 710.388 278 709.226 278H704.857V276.56H706.346ZM709.034 276.56C710.036 276.56 710.932 276.448 711.722 276.224C712.511 275.989 713.119 275.68 713.546 275.296C713.983 274.912 714.202 274.496 714.202 274.048C714.202 273.664 714.052 273.349 713.753 273.104C713.466 272.848 713.066 272.72 712.554 272.72C711.775 272.72 710.964 273.061 710.122 273.744C709.29 274.416 708.49 275.355 707.722 276.56H709.034Z" fill="black"/>
<defs>
<linearGradient id="paint0_linear_4887_2355" x1="514.469" y1="18.1562" x2="514.469" y2="148.844" gradientUnits="userSpaceOnUse">
<stop stop-color="#1757FF"/>
<stop offset="1" stop-color="#1794FF"/>
</linearGradient>
<linearGradient id="paint1_linear_4887_2355" x1="39.4943" y1="201.583" x2="39.4943" y2="269.096" gradientUnits="userSpaceOnUse">
<stop stop-color="#1757FF"/>
<stop offset="1" stop-color="#1794FF"/>
</linearGradient>
<clipPath id="clip0_4887_2355">
<rect width="147" height="153" fill="white" transform="translate(441 7)"/>
</clipPath>
<clipPath id="clip1_4887_2355">
<rect width="79" height="79" fill="white" transform="translate(0 195)"/>
</clipPath>
</defs>
</svg>
