<svg xmlns="http://www.w3.org/2000/svg" width="24" height="24" viewBox="0 0 24 24" fill="none">
  <g clip-path="url(#clip0_6582_3949)">
    <path d="M12 24.001C18.6274 24.001 24 18.6284 24 12.001C24 5.37356 18.6274 0.000976562 12 0.000976562C5.37258 0.000976562 0 5.37356 0 12.001C0 18.6284 5.37258 24.001 12 24.001Z" fill="#F0F0F0"/>
    <path d="M15.8985 8.86968H14.3285C14.3415 9.04222 14.3488 9.21632 14.3488 9.39139C14.3488 10.5522 14.0587 11.6773 13.5529 12.4783C13.3968 12.7253 13.1346 13.0741 12.7836 13.3094V8.86963H11.2184V13.3094C10.8674 13.0741 10.6052 12.7253 10.4491 12.4783C9.94325 11.6773 9.65314 10.5522 9.65314 9.39139C9.65314 9.21632 9.66055 9.04218 9.67348 8.86968H8.10345C8.09338 9.04138 8.08789 9.21528 8.08789 9.39139C8.08789 12.6096 9.8067 15.1305 12.0009 15.1305C14.1951 15.1305 15.9139 12.6096 15.9139 9.39139C15.914 9.21528 15.9086 9.04138 15.8985 8.86968Z" fill="#D80027"/>
    <path d="M4.9572 5.73914H6.52241V6.78263H8.08761V5.73914H9.65281V6.78263H11.218V5.73914H12.7832V6.78263H14.3484V5.73914H15.9136V6.78263H17.4788V5.73914H19.044V6.78263H22.8098C20.869 2.76867 16.7582 0 12.0007 0C7.2432 0 3.13241 2.76867 1.19141 6.78263H4.9572V5.73914Z" fill="#6DA544"/>
    <path d="M19.0442 17.2173V18.2608H17.479V17.2173H15.9138V18.2608H14.3486V17.2173H12.7834V18.2608H11.2182V17.2173H9.65295V18.2608H8.08775V17.2173H6.52241V18.2608H4.9572V17.2173H1.19141C3.13241 21.2312 7.24316 23.9999 12.0007 23.9999C16.7582 23.9999 20.869 21.2312 22.81 17.2173H19.0442Z" fill="#D80027"/>
  </g>
  <defs>
    <clipPath id="clip0_6582_3949">
      <rect width="24" height="24" fill="white"/>
    </clipPath>
  </defs>
</svg>